<svg width="4004" height="1081" viewBox="0 0 4004 1081" fill="none" xmlns="http://www.w3.org/2000/svg">
<rect width="1081" height="1081" rx="140" fill="#38B148"/>
<circle cx="448" cy="540" r="304" fill="white"/>
<rect x="598.317" y="390.146" width="101.868" height="540" rx="50.9339" transform="rotate(-28.758 598.317 390.146)" fill="white"/>
<rect x="421" y="392.523" width="101" height="540" rx="50.5" transform="rotate(-29.3627 421 392.523)" fill="white"/>
<circle cx="448.5" cy="539.5" r="201.5" fill="#38B148"/>
<path d="M634 299.5C671 327.5 705.5 373 732 422L735.5 337.5L634 299.5Z" fill="#38B148"/>
<path d="M735.5 640C728.245 664.292 722.346 676.93 709 698C699 681 687 662 678.5 652.5C661.83 633.869 630 632.5 610 660L573 381C603.478 408.596 615.5 424.5 631.5 454L735.5 640Z" fill="#38B148"/>
<path d="M624.5 441.5C619 430.5 608 417 599 405.5L616.5 418.5L624.5 441.5Z" fill="white"/>
<path d="M1389.82 841.897C1375.34 841.897 1364.22 835.69 1356.46 823.278C1348.71 810.865 1347.93 797.676 1354.14 783.712L1572.12 263.153C1579.88 245.051 1592.55 236 1610.13 236C1628.75 236 1641.42 245.051 1648.14 263.153L1866.9 785.264C1872.59 799.745 1871.55 812.934 1863.8 824.829C1856.56 836.208 1845.44 841.897 1830.44 841.897C1822.68 841.897 1815.18 839.828 1807.94 835.69C1801.22 831.036 1796.31 824.829 1793.2 817.071L1749.76 708.46H1471.27L1427.06 817.071C1423.44 825.346 1418.01 831.553 1410.77 835.69C1404.04 839.828 1397.06 841.897 1389.82 841.897ZM1498.42 641.741H1722.61L1611.68 365.558L1498.42 641.741Z" fill="#202020"/>
<path d="M2128.78 845C2088.44 845 2051.98 835.69 2019.4 817.071C1987.34 797.935 1961.74 772.075 1942.61 739.492C1923.99 706.908 1914.68 670.187 1914.68 629.329C1914.68 588.47 1923.21 552.008 1940.28 519.941C1957.86 487.358 1981.65 461.757 2011.65 443.138C2041.64 424.001 2075.51 414.433 2113.27 414.433C2143.78 414.433 2171.96 420.898 2197.82 433.828C2223.68 446.241 2245.4 463.308 2262.98 485.031V275.566C2262.98 263.67 2266.6 254.102 2273.84 246.861C2281.6 239.62 2291.17 236 2302.55 236C2314.44 236 2324.01 239.62 2331.25 246.861C2338.49 254.102 2342.11 263.67 2342.11 275.566V629.329C2342.11 670.187 2332.54 706.908 2313.41 739.492C2294.79 772.075 2269.45 797.935 2237.38 817.071C2205.32 835.69 2169.12 845 2128.78 845ZM2128.78 775.178C2155.16 775.178 2178.69 768.972 2199.37 756.559C2220.06 743.629 2236.35 726.045 2248.24 703.805C2260.14 681.566 2266.09 656.74 2266.09 629.329C2266.09 601.4 2260.14 576.575 2248.24 554.852C2236.35 533.13 2220.06 516.062 2199.37 503.65C2178.69 490.72 2155.16 484.255 2128.78 484.255C2102.92 484.255 2079.39 490.72 2058.19 503.65C2037.5 516.062 2020.95 533.13 2008.54 554.852C1996.65 576.575 1990.7 601.4 1990.7 629.329C1990.7 656.74 1996.65 681.566 2008.54 703.805C2020.95 726.045 2037.5 743.629 2058.19 756.559C2079.39 768.972 2102.92 775.178 2128.78 775.178Z" fill="#202020"/>
<path d="M2681.2 845C2638.28 845 2600.01 835.949 2566.39 817.847C2533.3 799.228 2507.18 773.885 2488.04 741.819C2469.43 709.236 2460.12 671.997 2460.12 630.104C2460.12 587.694 2468.91 550.456 2486.49 518.39C2504.59 485.806 2529.42 460.464 2560.96 442.362C2592.51 423.743 2628.71 414.433 2669.57 414.433C2709.9 414.433 2744.55 423.484 2773.51 441.586C2802.48 459.171 2824.45 483.738 2839.45 515.287C2854.97 546.318 2862.72 582.264 2862.72 623.122C2862.72 632.949 2859.36 641.224 2852.64 647.948C2845.92 654.154 2837.38 657.257 2827.04 657.257H2532.26C2537.95 692.944 2554.24 722.166 2581.13 744.922C2608.54 767.162 2641.9 778.282 2681.2 778.282C2697.23 778.282 2713.52 775.437 2730.07 769.748C2747.14 763.541 2760.84 756.559 2771.19 748.801C2778.94 743.112 2787.22 740.268 2796.01 740.268C2805.32 739.75 2813.34 742.336 2820.06 748.025C2828.85 755.783 2833.5 764.317 2834.02 773.627C2834.54 782.936 2830.4 790.953 2821.61 797.676C2804.03 811.641 2782.05 823.019 2755.67 831.811C2729.81 840.604 2704.99 845 2681.2 845ZM2669.57 481.152C2631.3 481.152 2600.53 491.754 2577.25 512.959C2553.98 534.164 2539.24 561.576 2533.04 595.194H2791.36C2786.7 562.093 2774.03 534.94 2753.35 513.735C2732.66 492.013 2704.73 481.152 2669.57 481.152Z" fill="#202020"/>
<path d="M2941.71 841.897C2931.37 841.897 2923.09 838.794 2916.89 832.587C2911.2 825.864 2908.35 817.847 2908.35 808.538C2908.35 799.228 2911.97 789.918 2919.21 780.609L3039.45 630.104L2911.46 478.824C2904.73 470.549 2901.11 461.757 2900.6 452.447C2900.08 442.62 2902.66 434.345 2908.35 427.622C2914.04 420.898 2922.57 417.536 2933.95 417.536C2946.36 417.536 2956.19 421.932 2963.43 430.725L3090.65 582.781L3204.68 430.725C3208.82 425.553 3213.22 422.191 3217.87 420.639C3222.53 418.571 3227.7 417.536 3233.39 417.536C3244.76 417.536 3253.3 421.157 3258.99 428.397C3264.67 435.121 3267.26 443.396 3266.74 453.223C3266.74 463.05 3263.12 472.618 3255.88 481.927L3138.75 634.759L3262.09 782.161C3269.85 791.47 3273.47 800.78 3272.95 810.089C3272.95 818.882 3269.59 826.381 3262.86 832.587C3256.66 838.794 3248.38 841.897 3238.04 841.897C3232.87 841.897 3227.96 841.121 3223.3 839.569C3218.65 838.018 3214.25 834.656 3210.11 829.484L3086.77 682.083L2969.64 829.484C2961.88 837.759 2952.57 841.897 2941.71 841.897Z" fill="#202020"/>
<path d="M3419.28 841.897C3407.91 841.897 3398.34 838.276 3390.58 831.036C3383.34 823.278 3379.72 813.71 3379.72 802.331V457.102C3379.72 445.206 3383.34 435.638 3390.58 428.397C3398.34 421.157 3407.91 417.536 3419.28 417.536C3431.18 417.536 3440.75 421.157 3447.99 428.397C3455.23 435.638 3458.85 445.206 3458.85 457.102V802.331C3458.85 813.71 3455.23 823.278 3447.99 831.036C3440.75 838.276 3431.18 841.897 3419.28 841.897ZM3419.28 348.49C3405.32 348.49 3393.17 343.577 3382.82 333.75C3373 323.406 3368.09 311.252 3368.09 297.288C3368.09 283.324 3373 271.428 3382.82 261.601C3393.17 251.257 3405.32 246.085 3419.28 246.085C3433.25 246.085 3445.14 251.257 3454.97 261.601C3465.31 271.428 3470.48 283.324 3470.48 297.288C3470.48 311.252 3465.31 323.406 3454.97 333.75C3445.14 343.577 3433.25 348.49 3419.28 348.49Z" fill="#202020"/>
<path d="M3645.61 842.673C3634.23 842.673 3624.67 839.052 3616.91 831.811C3609.67 824.053 3606.05 814.485 3606.05 803.107V457.102C3606.05 445.206 3609.67 435.638 3616.91 428.397C3624.67 421.157 3634.23 417.536 3645.61 417.536C3657.5 417.536 3667.07 421.157 3674.31 428.397C3681.55 435.638 3685.17 445.206 3685.17 457.102V465.636C3701.2 449.603 3720.6 436.931 3743.35 427.622C3766.11 418.312 3790.67 413.657 3817.05 413.657C3852.73 413.657 3884.54 421.415 3912.46 436.931C3940.91 451.93 3963.14 474.169 3979.18 503.65C3995.73 533.13 4004 569.334 4004 612.261V803.107C4004 814.485 4000.12 824.053 3992.36 831.811C3985.12 839.052 3975.82 842.673 3964.44 842.673C3953.06 842.673 3943.49 839.052 3935.74 831.811C3928.5 824.053 3924.88 814.485 3924.88 803.107V612.261C3924.88 568.299 3912.98 536.233 3889.19 516.062C3865.92 495.375 3836.7 485.031 3801.53 485.031C3779.81 485.031 3760.16 489.427 3742.58 498.219C3724.99 507.011 3711.03 518.907 3700.69 533.906C3690.34 548.387 3685.17 565.196 3685.17 584.332V803.107C3685.17 814.485 3681.55 824.053 3674.31 831.811C3667.07 839.052 3657.5 842.673 3645.61 842.673Z" fill="#202020"/>
</svg>
